<?xml version="1.0" encoding="UTF-8"?>
<svg version="1.1" xmlns="http://www.w3.org/2000/svg" width="1000" height="1000">
<path d="M0 0 C0.69869705 -0.00111156 1.3973941 -0.00222313 2.11726379 -0.00336838 C19.65293788 -0.02809038 36.99482027 0.49286223 54.4375 2.375 C55.60095947 2.4898877 56.76441895 2.60477539 57.96313477 2.72314453 C145.82338069 11.64394923 232.79022197 47.41489721 302.4375 101.375 C302.97648926 101.78927246 303.51547852 102.20354492 304.07080078 102.63037109 C316.48140429 112.17780489 328.31553757 122.30929389 339.79296875 132.95703125 C342.04580359 135.01686103 344.33665663 136.991812 346.6875 138.9375 C347.595 139.741875 348.5025 140.54625 349.4375 141.375 C349.4375 142.035 349.4375 142.695 349.4375 143.375 C350.01113281 143.61089844 350.58476563 143.84679687 351.17578125 144.08984375 C353.94490972 145.66332089 355.55059973 147.52303411 357.625 149.9375 C360.62330118 153.36272786 363.67056943 156.64283356 366.9375 159.8125 C371.04933804 163.86712986 374.6637936 168.20531696 378.26953125 172.7109375 C380.1751723 175.05264416 382.14330013 177.28009323 384.1875 179.5 C390.3979103 186.41417449 395.86526847 193.9464779 401.4375 201.375 C402.17154053 202.34711426 402.17154053 202.34711426 402.92041016 203.33886719 C417.41943393 222.56725084 429.74334475 243.15593182 441.27929688 264.26708984 C442.30270039 266.12966699 443.34524091 267.98170141 444.390625 269.83203125 C472.59042917 320.72201399 488.65686883 379.01750206 496.4375 436.375 C496.60266113 437.55368652 496.76782227 438.73237305 496.93798828 439.94677734 C502.26785806 479.83536842 502.09913748 523.54468992 496.4375 563.375 C496.18009033 565.29771729 496.18009033 565.29771729 495.91748047 567.25927734 C489.71048495 613.41820905 477.34624352 658.45216661 458.46337891 701.04248047 C457.51053901 703.20893273 456.58360116 705.38401859 455.66796875 707.56640625 C451.54345268 717.34156936 446.76560533 726.70084926 441.70947266 736.02539062 C440.50754191 738.2456174 439.32133131 740.47362602 438.13671875 742.703125 C427.47495502 762.54685758 414.95474422 781.37182324 401.4375 799.375 C400.99212891 799.97199707 400.54675781 800.56899414 400.08789062 801.18408203 C391.84111394 812.20993513 382.97894266 822.69274889 373.703125 832.86328125 C372.48708666 834.21140651 371.27670804 835.56537508 370.10522461 836.95239258 C364.54400489 843.49045415 358.46120679 849.50224486 352.38598633 855.55688477 C350.50421726 857.43329475 348.62785262 859.31498969 346.75195312 861.19726562 C340.81850571 867.13439973 334.88118849 872.98585182 328.4375 878.375 C327.33417478 879.32238046 326.23129638 880.27028161 325.12890625 881.21875 C319.01083397 886.42596683 312.84225476 891.52170757 306.4375 896.375 C305.34881241 897.21856171 304.26028439 898.06232938 303.171875 898.90625 C286.75485229 911.53004436 269.41303717 923.08695788 251.4375 933.375 C250.81004883 933.73609863 250.18259766 934.09719727 249.53613281 934.46923828 C245.52510944 936.77164141 241.49411076 939.0349516 237.44384766 941.26757812 C236.1418296 941.98623886 234.84188737 942.70867826 233.54443359 943.43554688 C183.83098965 971.22229618 127.52092683 987.91562854 71.4375 996.375 C70.72579651 996.48261658 70.01409302 996.59023315 69.28082275 996.70111084 C46.42975869 1000.08949468 23.56018609 1000.761582 0.49487305 1000.80756378 C-1.57985879 1000.81239489 -3.65453464 1000.82165259 -5.72924805 1000.83148193 C-25.54528253 1000.90537394 -44.89723764 999.68722237 -64.5625 997.375 C-65.41733978 997.27520844 -66.27217957 997.17541687 -67.15292358 997.07260132 C-71.49235093 996.55282943 -75.80954526 995.93990146 -80.125 995.25 C-81.41559326 995.04391113 -82.70618652 994.83782227 -84.03588867 994.62548828 C-141.63683683 985.11264558 -199.37300957 965.39232343 -249.5625 935.375 C-250.45437012 934.84696777 -251.34624023 934.31893555 -252.26513672 933.77490234 C-264.67357667 926.4112188 -276.85265486 918.80965636 -288.5625 910.375 C-289.33609863 909.81780273 -290.10969727 909.26060547 -290.90673828 908.68652344 C-300.3542401 901.85327207 -309.67938632 894.93343883 -318.5625 887.375 C-319.10712891 886.91383789 -319.65175781 886.45267578 -320.21289062 885.97753906 C-330.84960797 876.96506135 -341.27249498 867.83286334 -351.01953125 857.85546875 C-353.42417489 855.50992541 -355.93984493 853.46791349 -358.5625 851.375 C-359.57710564 850.30330658 -360.55753637 849.19815562 -361.5 848.0625 C-364.43729601 844.61744385 -367.48732133 841.30555246 -370.59448242 838.01489258 C-376.88538505 831.35065251 -382.86477088 824.55866539 -388.5625 817.375 C-389.49207571 816.23582397 -390.42315547 815.09787416 -391.35546875 813.9609375 C-398.88317633 804.73918771 -405.8398532 795.19636681 -412.5625 785.375 C-413.0575 784.65441406 -413.5525 783.93382812 -414.0625 783.19140625 C-459.47944584 716.84008694 -488.11849928 640.93104118 -497.8125 561.0625 C-497.89567474 560.37820923 -497.97884949 559.69391846 -498.06454468 558.9888916 C-499.71932617 545.20244261 -500.71377966 531.49699499 -500.765625 517.60546875 C-500.77268463 516.33817429 -500.77974426 515.07087982 -500.78701782 513.7651825 C-500.80453215 509.69758012 -500.81171 505.6301322 -500.8125 501.5625 C-500.81279457 500.86851357 -500.81308914 500.17452713 -500.81339264 499.4595108 C-500.8148437 478.29313791 -500.57884593 457.36844508 -497.5625 436.375 C-497.46304077 435.67445496 -497.36358154 434.97390991 -497.2611084 434.25213623 C-488.44677897 372.55013188 -470.06793662 312.02017518 -438.94921875 257.796875 C-437.59234426 255.42712237 -436.26262821 253.0438684 -434.9375 250.65625 C-418.51954792 221.35359464 -398.48260395 193.46891169 -375.72265625 168.74609375 C-374.55363466 167.46291815 -373.39156457 166.17247094 -372.27197266 164.84594727 C-366.48444573 158.03272464 -360.13846117 151.76488692 -353.82128906 145.44848633 C-351.82586586 143.45088048 -349.83858944 141.44540647 -347.8515625 139.43945312 C-340.72327393 132.28012346 -333.49956739 125.63594255 -325.5625 119.375 C-324.40977118 118.39234844 -323.264039 117.40136394 -322.12890625 116.3984375 C-296.26225123 93.55724598 -266.77547987 74.9031469 -236.5625 58.375 C-235.56017334 57.82247559 -235.56017334 57.82247559 -234.53759766 57.25878906 C-162.73291323 17.80641778 -81.37225281 0.04421372 0 0 Z " fill="#000000" transform="translate(500.5625,-0.375)"/>
<path d="M0 0 C4.09675669 4.18750128 6.49449096 8.57586843 8.86328125 13.88671875 C9.21244095 14.64921936 9.56160065 15.41171997 9.92134094 16.19732666 C11.06041145 18.69019696 12.18637881 21.18875698 13.3125 23.6875 C14.10700263 25.43148469 14.90242543 27.17505045 15.69873047 28.91821289 C17.74266457 33.39759892 19.77633065 37.88156183 21.80706787 42.36694336 C24.73382884 48.8269315 27.6765739 55.27964146 30.62045288 61.73184204 C31.59046919 63.86168159 32.55601934 65.99349543 33.52075195 68.12573242 C36.87811961 75.52295449 40.37427424 82.82856888 44.03419495 90.08093262 C47.50728013 96.97283521 50.79920286 103.94434313 54.0625 110.9375 C54.53248413 111.94224365 54.53248413 111.94224365 55.01196289 112.96728516 C60.07010297 123.78316275 65.05666436 134.63121218 70 145.5 C70.30302032 146.16571014 70.60604065 146.83142029 70.91824341 147.51730347 C74.56495403 155.53568746 78.15236696 163.57725023 81.65319824 171.66052246 C83.91881958 176.8764549 86.39922616 181.9453887 89 187 C96.90136772 202.45304372 96.90136772 202.45304372 99.83325195 210.20239258 C101.24173911 213.57963767 102.88485093 216.81741734 104.546875 220.07421875 C109.33212104 229.55348132 113.79943771 239.17269847 118.25 248.8125 C119.08958335 250.62549581 119.92918314 252.43848401 120.76879883 254.25146484 C126.00539787 265.57778152 131.10546013 276.95505947 136.1159668 288.38305664 C139.23389519 295.43629965 142.60316315 302.26111631 146.37890625 308.984375 C148.13420956 312.24966213 149.56570091 315.58311021 151 319 C151.65129797 320.34090759 152.31513275 321.67592331 153 323 C154.20852802 325.3364875 155.28578619 327.67165582 156.31689453 330.0949707 C158.12341594 334.32606999 160.05268061 338.49650778 161.9921875 342.66796875 C162.56617783 343.90564247 162.56617783 343.90564247 163.15176392 345.1683197 C164.39191261 347.84181244 165.63346852 350.51464917 166.875 353.1875 C167.73121973 355.032994 168.58733885 356.87853468 169.44335938 358.72412109 C173.3039498 367.04610599 177.16928712 375.36587631 181.0390625 383.68359375 C181.63689505 384.9691506 182.23471456 386.25471352 182.83251953 387.5402832 C183.91320207 389.86351333 184.99484766 392.18629583 186.07763672 394.50854492 C188.02282634 398.68936313 189.96336008 402.86087085 191.73828125 407.1171875 C192.83665084 409.99869302 192.83665084 409.99869302 194.6875 412 C196.74529097 415.13568147 196.50491248 417.33938453 196 421 C194.42432993 424.00732115 193.75876274 425.210495 191 427 C186.40006161 427.93193738 181.79932838 427.84162787 177.12524414 427.80810547 C175.69581468 427.81951564 174.26640344 427.83344527 172.83702087 427.84970093 C168.96074157 427.88556746 165.08536758 427.8832276 161.20897222 427.87181616 C157.97083794 427.86563243 154.7328776 427.8778171 151.49476808 427.88989365 C143.854519 427.91798189 136.21471717 427.91486425 128.57446289 427.89208984 C120.69699191 427.86912695 112.82088269 427.8972763 104.94359118 427.95088279 C98.17562691 427.99521251 91.40808987 428.00846843 84.63999075 427.99672997 C80.59971502 427.98999153 76.56031216 427.99481182 72.52015877 428.02923203 C68.72000441 428.06019495 64.92186493 428.05224291 61.12178993 428.01462173 C59.72944776 428.00725529 58.33695593 428.01345322 56.94475174 428.03439331 C46.44123754 428.18028301 46.44123754 428.18028301 42.85838509 425.24615192 C41.30880394 423.22270826 40.11762965 421.28536534 39 419 C38.5059668 418.11691162 38.01193359 417.23382324 37.50292969 416.32397461 C36.96780762 415.12526733 36.96780762 415.12526733 36.421875 413.90234375 C35.77798828 412.48308594 35.77798828 412.48308594 35.12109375 411.03515625 C34.66863281 410.01292969 34.21617187 408.99070312 33.75 407.9375 C32.70378802 405.62339805 31.656866 403.30961703 30.609375 400.99609375 C30.32936646 400.37394989 30.04935791 399.75180603 29.76086426 399.11080933 C26.28638483 391.39179228 22.72429995 383.71330599 19.17004395 376.03079224 C18.0019836 373.50429052 16.83605526 370.97681654 15.67089844 368.44897461 C12.21321258 360.94803591 8.74871872 353.45064767 5.25 345.96875 C4.69441406 344.77701172 4.13882813 343.58527344 3.56640625 342.35742188 C2.55765328 340.19526932 1.54493954 338.034958 0.52734375 335.87695312 C-1.75900758 330.96763023 -3.71295001 326.26520451 -5 321 C-5.66 321 -6.32 321 -7 321 C-7.41765625 320.01 -7.8353125 319.02 -8.265625 318 C-10.00002828 313.95441296 -11.86298482 309.97621055 -13.75 306 C-19.66706898 293.50019179 -25.49427006 280.96361116 -31.1960144 268.36422729 C-44.71954555 238.24392011 -44.71954555 238.24392011 -59.21875 208.58984375 C-61.14051151 204.79034733 -62.8738699 200.90893954 -64.625 197.02856445 C-67.11776193 191.53802615 -69.69186461 186.08530223 -72.25 180.625 C-76.34995002 171.86682683 -80.42325884 163.09714743 -84.44921875 154.3046875 C-84.82311737 153.48851959 -85.19701599 152.67235168 -85.58224487 151.83145142 C-87.40817284 147.84442029 -89.23110038 143.85605386 -91.04980469 139.86572266 C-94.72813921 131.81545132 -98.51417558 123.84656342 -102.54467773 115.96606445 C-104.2548168 112.48066276 -105.65122461 108.92785616 -107.03515625 105.3046875 C-108.38621664 102.07745822 -110.10540058 99.10721389 -111.84765625 96.078125 C-113.47092139 93.15074515 -114.70171543 90.08342585 -116 87 C-116.80417746 85.39164508 -117.61740896 83.78779923 -118.4375 82.1875 C-120.60204029 77.92361642 -122.41842133 73.60137664 -124.10546875 69.12890625 C-125.01929809 66.76622313 -125.01929809 66.76622313 -127 64 C-127 60.625 -127 60.625 -126 57 C-121.77221556 52.90494973 -117.40547133 50.50586648 -112.05859375 48.14453125 C-110.92374039 47.62927383 -110.92374039 47.62927383 -109.76596069 47.10360718 C-107.32687609 45.99808059 -104.88229893 44.90532288 -102.4375 43.8125 C-99.9173031 42.67389014 -97.39859683 41.53202908 -94.87998962 40.38990784 C-93.22085303 39.63773821 -91.56123853 38.88662184 -89.90113831 38.13658142 C-82.70349288 34.8811586 -75.56875619 31.50741956 -68.46850586 28.04418945 C-63.81551358 25.79337482 -59.10674473 23.80646147 -54.2956543 21.91723633 C-50.5411386 20.41710706 -46.90535221 18.67695587 -43.25 16.953125 C-41 16 -41 16 -39 16 C-39 15.34 -39 14.68 -39 14 C-35.62902617 12.50178941 -33.79557881 12 -30 12 C-30 11.34 -30 10.68 -30 10 C-28.68 10 -27.36 10 -26 10 C-26 9.34 -26 8.68 -26 8 C-23.17810883 6.64144548 -20.34099455 5.31807897 -17.5 4 C-16.70851563 3.6184375 -15.91703125 3.236875 -15.1015625 2.84375 C-9.8163695 0.41775977 -5.81653622 -0.97756911 0 0 Z " fill="#FDFDFD" transform="translate(643,260)"/>
<path d="M0 0 C5.43650919 4.20948817 7.60154336 9.95015067 10.3125 16.125 C10.79251465 17.19306885 11.2725293 18.2611377 11.76708984 19.36157227 C15.00099581 26.59928474 18.06464078 33.90100696 21.06591797 41.23754883 C23.6813367 47.51549895 26.76460714 53.4823388 30.11962891 59.39624023 C32.28350809 63.28263671 33.55933994 66.48848032 34 71 C34.66 71 35.32 71 36 71 C38.35484234 76.14552437 40.70891051 81.29140245 43.0625 86.4375 C43.59796951 87.60823059 43.59796951 87.60823059 44.14425659 88.8026123 C48.15782435 97.5789113 52.16638904 106.35742559 56.15625 115.14453125 C56.48749374 115.87397446 56.81873749 116.60341766 57.16001892 117.35496521 C58.72845482 120.80956389 60.2957653 124.26466798 61.86157227 127.72045898 C69.27508856 144.13562086 69.27508856 144.13562086 77.1875 160.3125 C79.43844399 164.75452244 81.34577679 169.23849811 83.125 173.88671875 C84.00633691 176.1719271 84.00633691 176.1719271 85.6875 178.75 C87.27648001 181.47396573 87.6384299 183.89049711 88 187 C88.66 187 89.32 187 90 187 C90.5559082 188.22456909 90.5559082 188.22456909 91.12304688 189.47387695 C100.13169054 209.31467033 109.16573419 229.14365524 118.23632812 248.95620728 C120.22129522 253.29340888 122.19895208 257.63386435 124.171875 261.9765625 C132.21525271 279.78646868 132.21525271 279.78646868 141.1875 297.140625 C142.15119529 299.3460046 142.36757306 301.0978038 142.4375 303.5 C142.47746094 304.2528125 142.51742188 305.005625 142.55859375 305.78125 C141.71248182 309.14203027 139.83395678 310.11425869 137 312 C134.14423943 312.49498463 134.14423943 312.49498463 130.95211792 312.48774719 C129.13085388 312.49816292 129.13085388 312.49816292 127.27279663 312.50878906 C125.93560429 312.49622887 124.5984156 312.4832763 123.26123047 312.4699707 C121.8466577 312.47047973 120.43208465 312.47273688 119.01751709 312.47660828 C115.18283296 312.48202228 111.34863294 312.4626317 107.5140357 312.43850732 C103.50091911 312.41719967 99.48780407 312.41780566 95.47463989 312.41581726 C88.73772863 312.40937232 82.00099912 312.38813339 75.26416016 312.35668945 C66.61380785 312.31636772 57.96357385 312.29899659 49.31313896 312.28938007 C41.87760838 312.28108178 34.44210289 312.26384585 27.00659418 312.24434257 C25.41016797 312.24029284 23.81374094 312.2365534 22.21731329 312.2331202 C17.66805838 312.22333565 13.11887434 312.20884986 8.569664 312.1862812 C7.19057736 312.18015736 5.81148214 312.17570796 4.43238449 312.17303848 C2.55287903 312.16905859 0.67339153 312.15829872 -1.20608521 312.14717102 C-2.25873125 312.14289754 -3.3113773 312.13862406 -4.39592171 312.13422108 C-7 312 -7 312 -10 311 C-11.35446386 308.6394488 -12.53928774 306.33358856 -13.6875 303.875 C-14.40162635 302.39095361 -15.11781771 300.90789936 -15.8359375 299.42578125 C-16.1978418 298.67635254 -16.55974609 297.92692383 -16.93261719 297.15478516 C-18.46234963 294.06662905 -20.13903939 291.07541777 -21.8125 288.0625 C-25.72882372 280.85876526 -28.9717323 273.39606741 -32.22753906 265.87597656 C-36.68559762 255.61612904 -41.3595256 245.46193195 -46.0625 235.3125 C-46.45481812 234.465737 -46.84713623 233.618974 -47.25134277 232.74655151 C-47.83607361 231.48453415 -47.83607361 231.48453415 -48.43261719 230.19702148 C-49.20380908 228.53240463 -49.97496845 226.8677727 -50.74609375 225.203125 C-51.11928741 224.39770767 -51.49248108 223.59229034 -51.87698364 222.76246643 C-54.83148776 216.37970186 -57.73724285 209.97572977 -60.625 203.5625 C-63.72165521 196.69597531 -66.96866484 189.92700274 -70.37866211 183.21069336 C-72.4083826 179.21152035 -74.30049004 175.18426983 -76.07421875 171.06640625 C-77.47884917 167.93117633 -79.06668742 164.89252782 -80.65625 161.84765625 C-81.79067813 159.44359198 -82.77251797 157.05726419 -83.734375 154.58203125 C-86.15127823 148.46931775 -88.97470298 142.55790546 -91.79830933 136.62597656 C-98.57063339 122.38683132 -105.05297955 108.03182088 -111.36816406 93.58447266 C-111.99335621 92.16013721 -112.61932124 90.73614073 -113.24609375 89.3125 C-113.5486055 88.62483047 -113.85111725 87.93716095 -114.16279602 87.22865295 C-116.7244992 81.47456713 -119.52752163 75.85394121 -122.47996521 70.29040527 C-125.14459122 65.14892652 -126.06125924 61.69220865 -125 56 C-123.70703125 54.26953125 -123.70703125 54.26953125 -122 53 C-120.68 53 -119.36 53 -118 53 C-118 52.34 -118 51.68 -118 51 C-116.90461914 50.49251221 -115.80923828 49.98502441 -114.68066406 49.4621582 C-104.80829284 44.88819286 -94.93626206 40.31349369 -85.06466675 35.737854 C-80.91535803 33.81460074 -76.76600107 31.89145261 -72.61621094 29.96923828 C-68.95209015 28.27198571 -65.28841654 26.57377219 -61.625 24.875 C-60.51237793 24.35921387 -59.39975586 23.84342773 -58.25341797 23.31201172 C-51.60816348 20.22639287 -44.98637897 17.09491838 -38.375 13.9375 C-23.07812001 6.64681092 -23.07812001 6.64681092 -16 5 C-16 4.34 -16 3.68 -16 3 C-10.65838248 0.96509809 -5.78644197 -0.89022184 0 0 Z " fill="#FDFDFD" transform="translate(396,375)"/>
<path d="M0 0 C2.36449351 2.14512478 3.67241635 4.06192319 4.9375 6.984375 C5.44410156 8.14066406 5.44410156 8.14066406 5.9609375 9.3203125 C6.30382812 10.12210937 6.64671875 10.92390625 7 11.75 C7.34289062 12.53632813 7.68578125 13.32265625 8.0390625 14.1328125 C8.71401156 15.68364964 9.38468621 17.23635506 10.05078125 18.79101562 C10.66497727 20.22034834 11.2868833 21.64640301 11.91796875 23.06835938 C14 27.78469777 14 27.78469777 14 30 C14.66 30 15.32 30 16 30 C16.24089355 30.54604385 16.48178711 31.09208771 16.72998047 31.65467834 C19.14270637 37.10597093 21.61250432 42.52765481 24.125 47.93359375 C24.50870758 48.76075897 24.89241516 49.58792419 25.28775024 50.44015503 C26.10374478 52.19906287 26.92004555 53.95782867 27.7366333 55.71646118 C29.44741909 59.4011511 31.15635874 63.08669618 32.86538696 66.77220154 C34.13374619 69.50738113 35.40231338 72.2424642 36.67089844 74.97753906 C39.6591488 81.42088755 42.64539487 87.86514803 45.625 94.3125 C46.09711914 95.33384033 46.56923828 96.35518066 47.05566406 97.4074707 C50.37415578 104.60284286 53.61397655 111.83151632 56.83911133 119.0690918 C59.50591593 125.00954448 62.37673598 130.82664198 65.33300781 136.62744141 C67.4351559 140.77976722 69.22271456 144.95047607 70.87109375 149.296875 C73.0079516 154.41350348 75.58772988 159.32405457 78.09765625 164.265625 C78.41492676 164.90435547 78.73219727 165.54308594 79.05908203 166.20117188 C79.90801345 167.82414196 80.88335963 169.37944259 81.87109375 170.921875 C84.75163052 178.77607214 79.20465987 187.86615193 76.125 195.0625 C75.69058594 196.09955078 75.25617188 197.13660156 74.80859375 198.20507812 C72.39640332 203.91682634 69.8158748 209.47748692 67 215 C65.94738498 217.32882473 64.93584742 219.67043887 63.9296875 222.01953125 C63 224 63 224 61 227 C58.50500298 227.36914349 58.50500298 227.36914349 55.29269409 227.36076355 C54.07830658 227.36488754 52.86391907 227.36901154 51.61273193 227.3732605 C50.2598855 227.36264239 48.90704128 227.35173795 47.55419922 227.34057617 C46.13520323 227.33973031 44.71620592 227.34020424 43.29721069 227.34190369 C39.43783379 227.34276668 35.57873493 227.32509198 31.71942282 227.30418181 C27.68886812 227.28546553 23.65830751 227.28366857 19.62771606 227.28010559 C11.99203845 227.27077023 4.35648923 227.24613638 -3.27913177 227.21605712 C-11.97065127 227.18255939 -20.6621768 227.16603877 -29.35374475 227.15097082 C-47.23590271 227.11958805 -65.11794104 227.0667987 -83 227 C-86.12810853 220.96051102 -86.75968778 217.58985117 -85 211 C-83.73624642 208.22400198 -82.36321418 205.53642499 -80.92333984 202.84838867 C-78.35961679 197.97245109 -76.49261685 193.03306143 -74.75 187.8125 C-72.12583279 180.02174812 -69.20448185 172.409017 -66.0625 164.8125 C-59.31694539 148.48673929 -52.95043909 132.01557304 -46.55387878 115.55070496 C-44.66080281 110.68269082 -42.74880033 105.82315487 -40.79223633 100.98022461 C-39.88131503 98.70334245 -39.00328015 96.41464814 -38.125 94.125 C-36.62893238 90.36429669 -34.91195447 86.78707763 -33.0625 83.1875 C-31.00696811 79.15291955 -29.19767867 75.12462305 -27.59375 70.890625 C-27.16263916 69.75391357 -26.73152832 68.61720215 -26.28735352 67.44604492 C-24.7122199 63.22965747 -23.15782537 59.00608701 -21.61352539 54.77832031 C-17.43861639 43.36210662 -13.0874268 32.0311172 -8.5625 20.75 C-8.17709549 19.78853561 -8.17709549 19.78853561 -7.78390503 18.80764771 C-5.25590642 12.50920209 -2.71460731 6.22059166 0 0 Z " fill="#FDFDFD" transform="translate(256,460)"/>
<path d="M0 0 C3.11358715 2.62861743 4.43271779 5.69296259 6.109375 9.36328125 C6.39927307 9.99171432 6.68917114 10.6201474 6.987854 11.2676239 C7.91485081 13.27976742 8.83287523 15.29584025 9.75 17.3125 C10.94983311 19.93511256 12.15365566 22.55587013 13.359375 25.17578125 C13.65682114 25.82369629 13.95426727 26.47161133 14.26072693 27.13916016 C16.88849102 32.83125347 19.68569375 38.42864412 22.53442383 44.01293945 C23.80566996 46.60392669 24.9180158 49.17747721 25.9375 51.875 C27.51183228 55.96434444 29.38533364 59.85061827 31.375 63.75 C35.31892352 71.50257237 39.01952664 79.36417544 42.6875 87.25 C42.98459869 87.88865997 43.28169739 88.52731995 43.58779907 89.18533325 C45.11406614 92.46792612 46.63827484 95.75146885 48.16113281 99.03564453 C49.97670042 102.95099638 51.79665013 106.86430086 53.6171875 110.77734375 C54.76584127 113.24729532 55.91422696 115.71737141 57.0625 118.1875 C57.58610107 119.31381836 58.10970215 120.44013672 58.64916992 121.60058594 C67.68984272 141.07550107 67.68984272 141.07550107 70.4375 148 C72.53271952 153.12461335 75.04889945 157.86110939 77.86328125 162.625 C79 165 79 165 79 169 C79.66 169 80.32 169 81 169 C81.26554688 169.60328125 81.53109375 170.2065625 81.8046875 170.828125 C82.15789062 171.62734375 82.51109375 172.4265625 82.875 173.25 C83.22304688 174.03890625 83.57109375 174.8278125 83.9296875 175.640625 C84.9481387 177.97047649 84.9481387 177.97047649 86.11328125 180.00390625 C88.86702193 186.20285554 86.91685284 193.33360676 84.65625 199.3828125 C84.4396875 199.91648437 84.223125 200.45015625 84 201 C83.34 201 82.68 201 82 201 C81.73461426 202.28249634 81.46922852 203.56499268 81.19580078 204.88635254 C80.06138282 209.97805042 78.52068136 214.87465137 76.8671875 219.81835938 C76.55799377 220.7544101 76.24880005 221.69046082 75.93023682 222.65487671 C74.91647133 225.71939757 73.89610529 228.78166764 72.875 231.84375 C72.16502603 233.98077657 71.45523056 236.11786244 70.74560547 238.25500488 C69.2625451 242.71759315 67.77595409 247.17898684 66.28710938 251.63964844 C64.3756014 257.36824616 62.47512501 263.10043723 60.57748413 268.83364105 C59.11744165 273.23953711 57.65057363 277.64313741 56.18170166 282.0460968 C55.47759512 284.16011437 54.7758909 286.27493359 54.07659912 288.39054871 C53.10242973 291.33505433 52.11888992 294.27626147 51.1328125 297.21679688 C50.84392151 298.09673309 50.55503052 298.97666931 50.25738525 299.88327026 C48.22836608 305.88581696 48.22836608 305.88581696 46 307 C45.54149658 306.01717041 45.08299316 305.03434082 44.6105957 304.02172852 C42.88991761 300.3356191 41.1649347 296.65153734 39.4387207 292.96801758 C38.69570377 291.38099269 37.95381689 289.79343818 37.21313477 288.20532227 C31.9314585 276.85134287 31.9314585 276.85134287 26.00683594 265.82470703 C24.43909132 262.98345502 23.24771806 259.99243803 22 257 C20.30404508 253.58054565 18.56231444 250.18713926 16.81640625 246.79296875 C15.51218824 244.16048382 14.39541061 241.50669377 13.33984375 238.765625 C10.331597 231.11017564 6.74365824 223.70790018 3.26089478 216.26028442 C-2.98191357 202.9033006 -9.18307113 189.52853466 -15.1875 176.0625 C-15.93483398 174.39586304 -15.93483398 174.39586304 -16.69726562 172.69555664 C-17.14134766 171.69387451 -17.58542969 170.69219238 -18.04296875 169.66015625 C-18.42477295 168.80043213 -18.80657715 167.94070801 -19.19995117 167.05493164 C-20 165 -20 165 -20 163 C-20.66 163 -21.32 163 -22 163 C-22.4125 161.824375 -22.825 160.64875 -23.25 159.4375 C-24.3039913 156.61359878 -25.46698584 154.03183166 -27 151.4375 C-28.97174555 148.04856234 -30.48634558 144.60276621 -32 141 C-33.20074825 138.20502856 -34.41245901 135.41487186 -35.625 132.625 C-35.93695313 131.90183594 -36.24890625 131.17867187 -36.5703125 130.43359375 C-37.89263695 126.9703069 -37.89263695 126.9703069 -40 124 C-39.94338874 117.65953874 -38.21203894 111.8848583 -36 106 C-35.34 106 -34.68 106 -34 106 C-33.88852631 105.45200745 -33.77705261 104.90401489 -33.66220093 104.3394165 C-32.49660307 98.83159806 -30.98270205 93.55866055 -29.1640625 88.234375 C-28.88859589 87.41495422 -28.61312927 86.59553345 -28.32931519 85.75128174 C-27.73847723 83.99483458 -27.14566176 82.23905158 -26.55102539 80.48388672 C-24.96442831 75.79980708 -23.39297026 71.11064933 -21.8203125 66.421875 C-21.50004089 65.4680896 -21.17976929 64.5143042 -20.84979248 63.53161621 C-17.17925221 52.58377241 -13.62649214 41.59835238 -10.08447266 30.60839844 C-6.78702866 20.38388144 -3.41334167 10.18641231 0 0 Z " fill="#FDFDFD" transform="translate(505,348)"/>
<path d="M0 0 C-1.15173355 2.46800047 -2.04783565 4.04783565 -4 6 C-4.39764263 7.98821313 -4.73775349 9.98944339 -5 12 C-5.66 11.67 -6.32 11.34 -7 11 C-6.51098901 4.64285714 -6.51098901 4.64285714 -4.0625 1.5625 C-2 0 -2 0 0 0 Z " fill="#C1C1C1" transform="translate(523,313)"/>
</svg>
