<svg width="1200" height="675" viewBox="0 0 1200 675" fill="none" xmlns="http://www.w3.org/2000/svg">
  <rect width="1200" height="675" rx="28" fill="#F5F7FB"/>
  <rect x="74" y="70" width="1052" height="535" rx="24" fill="#FFFFFF" stroke="#D9E2F1" stroke-width="2"/>
  <rect x="74" y="70" width="1052" height="72" rx="24" fill="#F1F5FB"/>
  <circle cx="113" cy="106" r="11" fill="#FF5F57"/>
  <circle cx="151" cy="106" r="11" fill="#FFBD2E"/>
  <circle cx="189" cy="106" r="11" fill="#28C840"/>
  <rect x="112" y="188" width="220" height="360" rx="18" fill="#EEF3FA"/>
  <rect x="370" y="188" width="390" height="42" rx="12" fill="#E8EEF7"/>
  <rect x="370" y="264" width="640" height="28" rx="8" fill="#1B1F2A"/>
  <rect x="370" y="314" width="530" height="20" rx="8" fill="#8994A6"/>
  <rect x="370" y="388" width="680" height="104" rx="16" fill="#EDF5FF" stroke="#B9D7FF"/>
  <rect x="112" y="218" width="170" height="26" rx="8" fill="#CFE1FF"/>
  <rect x="112" y="276" width="188" height="20" rx="8" fill="#D9E2F1"/>
  <rect x="112" y="326" width="158" height="20" rx="8" fill="#D9E2F1"/>
  <rect x="112" y="376" width="190" height="20" rx="8" fill="#D9E2F1"/>
  <text x="600" y="585" text-anchor="middle" fill="#738095" font-family="Arial, sans-serif" font-size="22">
    Screenshot placeholder - replace with a real Argus image later
  </text>
</svg>
